HIERARCHY
ROOT SimulationBone
{
	OFFSET 0.000000 0.000000 0.000000
	CHANNELS 6 Xposition Yposition Zposition Zrotation Yrotation Xrotation 
	JOINT Hips
	{
		OFFSET 0.000000 0.000000 0.000000
		CHANNELS 6 Xposition Yposition Zposition Zrotation Yrotation Xrotation 
		JOINT LeftUpLeg
		{
			OFFSET 0.103461 1.857818 10.548512
			CHANNELS 3 Zrotation Yrotation Xrotation
			JOINT LeftLeg
			{
				OFFSET 43.500000 -0.000019 0.000004
				CHANNELS 3 Zrotation Yrotation Xrotation
				JOINT LeftFoot
				{
					OFFSET 42.372200 0.000011 0.000000
					CHANNELS 3 Zrotation Yrotation Xrotation
					JOINT LeftToe
					{
						OFFSET 17.300009 0.000002 0.000004
						CHANNELS 3 Zrotation Yrotation Xrotation
						End Site
						{
							OFFSET 0.000000 0.000000 0.000000
						}
					}
				}
			}
		}
		JOINT RightUpLeg
		{
			OFFSET 0.103461 1.857838 -10.548504
			CHANNELS 3 Zrotation Yrotation Xrotation
			JOINT RightLeg
			{
				OFFSET 43.500042 -0.000038 0.000017
				CHANNELS 3 Zrotation Yrotation Xrotation
				JOINT RightFoot
				{
					OFFSET 42.372253 -0.000008 0.000015
					CHANNELS 3 Zrotation Yrotation Xrotation
					JOINT RightToe
					{
						OFFSET 17.299995 -0.000004 0.000004
						CHANNELS 3 Zrotation Yrotation Xrotation
						End Site
						{
							OFFSET 0.000000 0.000000 0.000000
						}
					}
				}
			}
		}
		JOINT Spine
		{
			OFFSET 6.901970 -2.603733 -0.000002
			CHANNELS 3 Zrotation Yrotation Xrotation
			JOINT Spine1
			{
				OFFSET 12.588097 0.000016 0.000005
				CHANNELS 3 Zrotation Yrotation Xrotation
				JOINT Spine2
				{
					OFFSET 12.343206 -0.000008 -0.000008
					CHANNELS 3 Zrotation Yrotation Xrotation
					JOINT Neck
					{
						OFFSET 25.832890 -0.000023 0.000008
						CHANNELS 3 Zrotation Yrotation Xrotation
						JOINT Head
						{
							OFFSET 11.766625 0.000019 -0.000006
							CHANNELS 3 Zrotation Yrotation Xrotation
							End Site
							{
								OFFSET 0.000000 0.000000 0.000000
							}
						}
					}
					JOINT LeftShoulder
					{
						OFFSET 19.745903 -1.480385 6.000111
						CHANNELS 3 Zrotation Yrotation Xrotation
						JOINT LeftArm
						{
							OFFSET 11.284122 -0.000021 -0.000025
							CHANNELS 3 Zrotation Yrotation Xrotation
							JOINT LeftForeArm
							{
								OFFSET 33.000057 -0.000001 0.000032
								CHANNELS 3 Zrotation Yrotation Xrotation
								JOINT LeftHand
								{
									OFFSET 25.200003 0.000023 0.000006
									CHANNELS 3 Zrotation Yrotation Xrotation
									End Site
									{
										OFFSET 0.000000 0.000000 0.000000
									}
								}
							}
						}
					}
					JOINT RightShoulder
					{
						OFFSET 19.746098 -1.480366 -6.000072
						CHANNELS 3 Zrotation Yrotation Xrotation
						JOINT RightArm
						{
							OFFSET 11.284136 -0.000004 -0.000006
							CHANNELS 3 Zrotation Yrotation Xrotation
							JOINT RightForeArm
							{
								OFFSET 33.000092 0.000029 0.000002
								CHANNELS 3 Zrotation Yrotation Xrotation
								JOINT RightHand
								{
									OFFSET 25.199776 0.000140 0.000420
									CHANNELS 3 Zrotation Yrotation Xrotation
									End Site
									{
										OFFSET 0.000000 0.000000 0.000000
									}
								}
							}
						}
					}
				}
			}
		}
	}
}
MOTION
Frames: 15
Frame Time: 0.033333
-309.305695 0.000000 352.660742 0.000000 29.636807 0.000000 1.012507 91.819138 -0.708317 95.245915 0.643672 -179.814650 -179.376040 -7.537799 174.148281 -20.216049 -0.083140 -0.075062 84.037835 -1.166081 -5.938650 21.454557 0.003106 0.000018 -178.032938 -1.020903 -173.010126 -11.134804 3.162665 6.116924 81.161649 -4.622890 -1.432085 21.454553 -0.003091 -0.000000 7.893539 1.361219 -0.025076 5.776052 2.722027 0.017497 5.457561 2.721942 0.001040 32.424834 -3.068853 12.199587 -4.986378 -10.803726 16.230418 167.824592 -74.209821 11.067846 1.505363 57.755390 38.690860 -39.351069 -18.358065 1.687234 6.543071 -0.226849 22.612957 -158.447070 81.381260 23.406199 -16.464149 -59.363817 -37.194277 -30.311843 16.308158 -1.319620 -0.879134 10.970390 -6.506803 
-309.389440 0.000000 352.815877 0.000000 29.567892 0.000000 0.970433 91.679810 -0.620169 95.280387 0.846421 -179.486391 179.595139 -7.898896 174.250447 -21.945517 0.099999 0.029407 84.552469 -1.229233 -5.997231 21.454558 0.003107 0.000018 -178.320953 -1.302199 -173.054632 -11.578450 3.279041 6.287305 81.390583 -4.763361 -1.564743 21.454553 -0.003093 0.000000 7.950560 1.436716 -0.021360 5.890493 2.872689 0.030115 5.571947 2.872681 0.012747 32.272101 -3.174199 11.872911 -5.109698 -10.543025 15.836041 167.471293 -74.252346 11.427762 1.854630 57.939156 39.314750 -38.853084 -18.173033 1.662145 6.667907 -0.024261 22.652150 -158.805901 81.439843 23.041635 -16.205609 -59.193882 -37.695397 -29.573930 16.023352 -1.287074 -0.959891 9.494614 -6.865966 
-309.479217 0.000000 352.942731 0.000000 29.476338 0.000000 0.893359 91.492828 -0.527998 95.309083 1.158674 -179.105959 178.254004 -8.367599 174.336822 -24.210770 0.354262 0.184981 85.194821 -1.322606 -6.054097 21.454560 0.003106 0.000017 -178.697119 -1.670391 -173.169802 -12.144375 3.421029 6.515927 81.682219 -4.936465 -1.678397 21.454553 -0.003091 -0.000000 8.016100 1.541063 -0.022462 6.021987 3.081236 0.034980 5.703389 3.081250 0.016348 32.058179 -3.234245 11.593210 -5.200188 -10.310807 15.484785 167.198987 -74.267604 11.705818 2.180393 58.079701 39.828039 -38.555690 -18.064650 1.647391 6.795487 0.256535 22.886854 -158.861799 81.488111 22.984095 -15.835558 -58.945325 -38.252768 -29.277510 15.846286 -1.270099 -1.094599 8.214885 -6.975068 
-309.573857 0.000000 353.038337 0.000000 29.356720 0.000000 0.797397 91.272133 -0.445991 95.358372 1.541858 -178.689063 176.683211 -8.824099 174.434849 -26.899660 0.765022 0.313058 85.829967 -1.402120 -6.123469 21.454557 0.003099 0.000016 -179.097095 -2.074799 -173.396209 -12.772323 3.606488 6.814159 82.016570 -5.148279 -1.766383 21.454550 -0.003093 0.000000 8.094591 1.666324 -0.027831 6.179417 3.331772 0.033039 5.860729 3.331772 0.012885 31.804130 -3.245038 11.361300 -5.309619 -10.102097 15.183271 167.073503 -74.218345 11.836025 2.475601 58.152306 40.192214 -38.483642 -18.050021 1.644584 6.867956 0.562246 23.222489 -158.654462 81.479744 23.194453 -15.501830 -58.608446 -38.688333 -29.274286 15.786999 -1.266242 -1.351346 7.144020 -6.915430 
-309.671009 0.000000 353.099677 0.000000 29.204736 0.000000 0.702300 91.065552 -0.381834 95.447224 1.887983 -178.290390 175.049484 -9.044005 174.648852 -29.747321 1.381074 0.238536 86.241302 -1.339877 -6.111914 21.454555 0.003117 0.000019 -179.437252 -2.435302 -173.731271 -13.351852 3.772114 7.149745 82.330561 -5.373332 -1.802522 21.454555 -0.003093 0.000000 8.186555 1.786507 -0.037187 6.363722 3.572372 0.023594 6.044945 3.572312 0.001995 31.582866 -3.222187 11.173085 -5.491727 -9.917278 14.939519 167.097614 -74.120557 11.815136 2.716746 58.201224 40.382974 -38.538386 -18.095673 1.648960 6.837375 0.697737 23.442319 -158.352444 81.403144 23.501738 -15.363483 -58.205916 -38.899720 -29.377747 15.818025 -1.265519 -1.673004 6.316098 -6.768635 
-309.767652 0.000000 353.123588 0.000000 29.018319 0.000000 0.620878 90.899063 -0.340318 95.584911 2.141742 -177.978562 173.482024 -8.985903 175.055385 -32.569095 2.051629 -0.177191 86.222355 -1.088494 -6.217720 21.454557 0.003108 0.000018 -179.670694 -2.713000 -174.170534 -13.830115 3.871855 7.477947 82.603809 -5.580269 -1.776632 21.454555 -0.003093 -0.000001 8.289860 1.885174 -0.043072 6.570757 3.769757 0.020663 6.251907 3.769672 -0.002136 31.448250 -3.191202 11.014694 -5.700421 -9.762327 14.741432 167.202621 -74.014901 11.711787 2.882375 58.286772 40.420728 -38.600804 -18.165059 1.655080 6.744938 0.557994 23.376343 -158.161349 81.289613 23.697386 -15.478066 -57.808030 -38.789150 -29.431258 15.894588 -1.266000 -1.900910 5.680924 -6.468508 
-309.860775 0.000000 353.107052 0.000000 28.798382 0.000000 0.552203 90.775841 -0.316040 95.752991 2.311769 -177.780673 172.131204 -8.739100 175.555492 -35.106906 2.583579 -0.912662 85.871358 -0.645667 -6.405036 21.454560 0.003107 0.000017 -179.818185 -2.919094 -174.718315 -14.221040 3.898642 7.786093 82.838979 -5.758649 -1.676988 21.454553 -0.003090 0.000000 8.395299 1.960121 -0.040588 6.782260 3.919333 0.031453 6.463347 3.919309 0.007739 31.407392 -3.176598 10.873151 -5.839369 -9.629630 14.566480 167.358718 -73.931381 11.555178 2.977120 58.420425 40.357371 -38.637069 -18.244878 1.661202 6.674462 0.304802 23.098467 -158.150489 81.176812 23.710322 -15.821624 -57.469102 -38.358213 -29.381148 15.948838 -1.267288 -1.937821 5.271891 -5.948283 
-309.947558 0.000000 353.047328 0.000000 28.548498 0.000000 0.488342 90.706207 -0.293410 95.910076 2.386347 -177.680600 170.997187 -8.356703 175.986640 -37.302498 2.926605 -1.844983 85.321979 -0.045259 -6.462571 21.454555 0.003110 0.000017 -179.929326 -3.029402 -175.331229 -14.549923 3.882967 8.057718 83.044985 -5.901909 -1.519138 21.454555 -0.003092 0.000000 8.488428 2.006612 -0.037055 6.969079 4.011823 0.046575 6.650137 4.011895 0.022297 31.440088 -3.188344 10.748681 -5.864296 -9.502845 14.406471 167.535784 -73.876023 11.376110 3.037901 58.566181 40.250892 -38.690245 -18.334543 1.668408 6.662599 0.149192 22.782337 -158.229187 81.059428 23.632475 -16.302108 -57.190297 -37.689312 -29.335772 15.916064 -1.268945 -1.836367 5.289259 -5.462775 
-310.025184 0.000000 352.942324 0.000000 28.272038 0.000000 0.429380 90.706413 -0.261087 96.023498 2.318702 -177.635370 170.001564 -7.924304 176.349952 -39.185591 3.067794 -2.768739 84.426322 0.551933 -6.436187 21.454558 0.003113 0.000017 179.970034 -2.974105 -175.872167 -14.825194 3.863848 8.236766 83.204852 -5.997531 -1.415054 21.454555 -0.003094 0.000000 8.558668 2.014403 -0.038734 7.109687 4.027394 0.046154 6.790721 4.027459 0.021790 31.511628 -3.230000 10.653849 -5.810468 -9.363207 14.272604 167.703889 -73.830943 11.205668 3.101951 58.660130 40.139219 -38.821982 -18.406371 1.676503 6.676789 0.121097 22.574422 -158.082884 80.902641 23.783378 -16.873882 -56.941399 -37.028136 -29.420323 15.810397 -1.270514 -1.681176 5.979646 -5.256963 
-310.090893 0.000000 352.791261 0.000000 27.968602 0.000000 0.377124 90.642967 -0.230867 96.113922 2.396394 -177.535432 169.210178 -7.830505 176.982619 -40.651367 2.913446 -2.618187 84.700486 0.387293 -6.800902 21.454558 0.003100 0.000018 179.724994 -2.996992 -176.170373 -15.403105 3.864931 8.284801 83.504868 -6.001787 -1.320822 21.454553 -0.003091 -0.000000 8.606128 2.040861 -0.051173 7.204394 4.080948 0.024610 6.885426 4.080889 -0.000091 31.600953 -3.264558 10.598190 -5.742658 -9.238384 14.183222 167.757396 -73.806054 11.151777 3.267017 58.676789 40.122003 -39.032304 -18.462169 1.685619 6.657039 0.130634 22.513743 -157.794678 80.675886 24.079714 -17.364305 -56.702110 -36.569553 -29.728719 15.748155 -1.272411 -1.461142 7.281409 -5.482577 
-310.142541 0.000000 352.594728 0.000000 27.634162 0.000000 0.354920 90.535454 -0.200714 96.197455 2.582305 -177.362415 168.796815 -7.761196 178.108780 -41.270236 2.504996 -0.961530 86.527104 -0.718741 -7.157836 21.454555 0.003113 0.000018 179.514706 -3.080993 -176.334898 -15.981649 3.901964 8.272065 83.831652 -5.966476 -1.239005 21.454550 -0.003091 0.000000 8.634104 2.080100 -0.075798 7.259753 4.160850 -0.021175 6.940742 4.160505 -0.046357 31.659347 -3.295743 10.564671 -5.659738 -9.118014 14.115179 167.765675 -73.780503 11.144351 3.446534 58.611533 40.168035 -39.253015 -18.512931 1.694724 6.600741 0.134187 22.598335 -157.266800 80.385152 24.620624 -17.777625 -56.529361 -36.304528 -30.151624 15.817922 -1.285077 -1.124221 8.830327 -5.867771 
-310.178710 0.000000 352.353873 0.000000 27.263730 0.000000 0.385040 90.480881 -0.184361 96.253004 2.701920 -177.207627 168.683392 -7.429507 179.818158 -40.590363 1.969647 2.308910 88.852538 -2.950270 -7.854588 21.454555 0.003114 0.000017 179.552819 -3.083496 -176.616111 -16.108035 3.965810 8.288822 83.968645 -5.958908 -1.164964 21.454548 -0.003090 0.000001 8.640092 2.097960 -0.099836 7.270982 4.198047 -0.067927 6.951948 4.197424 -0.093327 31.663729 -3.364765 10.520719 -5.537629 -8.943678 14.020389 167.908221 -73.730451 11.000242 3.495821 58.501048 40.161301 -39.405335 -18.557890 1.701670 6.540154 0.120291 22.770362 -156.504824 80.068901 25.400335 -18.114531 -56.481450 -36.053065 -30.557693 15.997124 -1.304555 -0.693523 10.132197 -6.001183 
-310.198260 0.000000 352.070107 0.000000 26.854785 0.000000 0.443837 90.481293 -0.174879 96.240294 2.805168 -177.197542 169.116782 -6.797898 -178.184623 -38.303667 1.350843 4.316351 90.904989 -4.325542 -8.808115 21.454555 0.003115 0.000017 179.742384 -3.070690 -177.087189 -15.840904 4.013712 8.311261 83.909448 -5.962348 -1.094579 21.454551 -0.003092 0.000000 8.618312 2.101774 -0.095353 7.227535 4.205394 -0.059512 6.908510 4.204817 -0.084960 31.623042 -3.504869 10.426699 -5.387637 -8.685409 13.855058 168.292706 -73.655490 10.609311 3.437086 58.420678 40.042390 -39.488404 -18.612853 1.707448 6.500581 0.138220 23.035049 -155.838183 79.789778 26.083027 -18.300491 -56.498802 -35.745153 -30.925386 16.141569 -1.321150 -0.274497 10.854090 -5.570465 
-310.200027 0.000000 351.745278 0.000000 26.407189 0.000000 0.517601 90.517822 -0.148797 96.150191 2.959866 -177.404574 169.951922 -5.852704 -176.330035 -34.874376 1.104102 4.521930 92.079945 -4.342391 -8.719292 21.454558 0.003110 0.000017 179.954735 -3.103301 -177.603141 -15.399452 4.018254 8.218682 83.746493 -5.899895 -1.062310 21.454551 -0.003095 0.000000 8.570542 2.100701 -0.049638 7.133552 4.200458 0.030093 6.814524 4.200430 0.004675 31.550061 -3.637551 10.265461 -5.268854 -8.425426 13.618129 168.885675 -73.583684 10.004601 3.360523 58.424427 39.828387 -39.552570 -18.661011 1.712287 6.495222 0.149930 23.244602 -155.581396 79.570884 26.348626 -18.345065 -56.474087 -35.485442 -31.268032 16.167749 -1.329774 0.024110 10.915507 -4.673671 
-310.182989 0.000000 351.381628 0.000000 25.921822 0.000000 0.593661 90.787979 -0.069165 95.996140 2.690071 -177.847721 170.932232 -4.387993 -175.140899 -31.503988 0.979307 3.200264 90.285559 -3.044972 -5.444956 21.454560 0.003107 0.000017 -179.520430 -2.710798 -178.103548 -14.251521 4.006690 7.952489 83.194156 -5.745918 -1.077296 21.454550 -0.003090 0.000000 8.508160 1.999235 0.006164 7.010058 3.994442 0.133260 6.691102 3.995030 0.109093 31.447062 -3.695210 10.060425 -5.222556 -8.253679 13.352472 169.689411 -73.483704 9.184698 3.193638 58.490482 39.477858 -39.636100 -18.685079 1.715768 6.504933 0.103033 23.257660 -155.750429 79.439232 26.179526 -18.458187 -56.436040 -35.281912 -31.537131 16.124909 -1.332523 0.159911 10.451989 -3.830850 
